<mxfile host="65bd71144e">
    <diagram id="BC2V4QTmiuFFL8je2IGP" name="ページ1">
        <mxGraphModel dx="2821" dy="861" grid="0" gridSize="10" guides="1" tooltips="1" connect="1" arrows="1" fold="1" page="0" pageScale="1" pageWidth="827" pageHeight="1169" math="0" shadow="0">
            <root>
                <mxCell id="0"/>
                <mxCell id="1" parent="0"/>
                <mxCell id="11" value="infrastructure (dataaccess)" style="rounded=0;whiteSpace=wrap;html=1;fillColor=none;verticalAlign=top;fontSize=18;" parent="1" vertex="1">
                    <mxGeometry x="1214" y="143" width="320" height="628" as="geometry"/>
                </mxCell>
                <mxCell id="47" value="query" style="shape=folder;fontStyle=1;spacingTop=10;tabWidth=40;tabHeight=14;tabPosition=left;html=1;verticalAlign=top;fillColor=none;fontSize=18;" vertex="1" parent="1">
                    <mxGeometry x="1272" y="508" width="217" height="173" as="geometry"/>
                </mxCell>
                <mxCell id="46" value="repository" style="shape=folder;fontStyle=1;spacingTop=10;tabWidth=40;tabHeight=14;tabPosition=left;html=1;verticalAlign=top;fillColor=none;fontSize=18;" vertex="1" parent="1">
                    <mxGeometry x="1272" y="294" width="217" height="173" as="geometry"/>
                </mxCell>
                <mxCell id="2" value="domain" style="rounded=0;whiteSpace=wrap;html=1;fillColor=none;verticalAlign=top;fontSize=18;" parent="1" vertex="1">
                    <mxGeometry x="861" y="140" width="320" height="629" as="geometry"/>
                </mxCell>
                <mxCell id="45" value="model" style="shape=folder;fontStyle=1;spacingTop=10;tabWidth=40;tabHeight=14;tabPosition=left;html=1;verticalAlign=top;fillColor=none;fontSize=18;" vertex="1" parent="1">
                    <mxGeometry x="916" y="187" width="203" height="285" as="geometry"/>
                </mxCell>
                <mxCell id="7" value="application" style="rounded=0;whiteSpace=wrap;html=1;fillColor=none;verticalAlign=top;fontSize=18;" parent="1" vertex="1">
                    <mxGeometry x="507" y="140" width="320" height="628" as="geometry"/>
                </mxCell>
                <mxCell id="42" value="query" style="shape=folder;fontStyle=1;spacingTop=10;tabWidth=40;tabHeight=14;tabPosition=left;html=1;verticalAlign=top;fillColor=none;fontSize=18;" vertex="1" parent="1">
                    <mxGeometry x="559.5" y="514" width="215" height="228" as="geometry"/>
                </mxCell>
                <mxCell id="40" value="usecase" style="shape=folder;fontStyle=1;spacingTop=10;tabWidth=40;tabHeight=14;tabPosition=left;html=1;verticalAlign=top;fillColor=none;fontSize=18;" vertex="1" parent="1">
                    <mxGeometry x="559.5" y="225" width="215" height="228" as="geometry"/>
                </mxCell>
                <mxCell id="3" value="presentation" style="rounded=0;whiteSpace=wrap;html=1;fillColor=none;verticalAlign=top;fontSize=18;" parent="1" vertex="1">
                    <mxGeometry x="150" y="140" width="320" height="627" as="geometry"/>
                </mxCell>
                <mxCell id="4" value="Request" style="rounded=0;whiteSpace=wrap;html=1;fillColor=none;fontSize=18;" parent="1" vertex="1">
                    <mxGeometry x="178" y="236" width="120" height="60" as="geometry"/>
                </mxCell>
                <mxCell id="5" value="Router" style="rounded=0;whiteSpace=wrap;html=1;fillColor=none;fontSize=18;" parent="1" vertex="1">
                    <mxGeometry x="298" y="316" width="120" height="60" as="geometry"/>
                </mxCell>
                <mxCell id="6" value="Response" style="rounded=0;whiteSpace=wrap;html=1;fillColor=none;fontSize=18;" parent="1" vertex="1">
                    <mxGeometry x="188" y="416" width="120" height="60" as="geometry"/>
                </mxCell>
                <mxCell id="37" style="edgeStyle=none;html=1;exitX=0.5;exitY=1;exitDx=0;exitDy=0;endArrow=block;endFill=0;exitPerimeter=0;entryX=0;entryY=0;entryDx=127.5;entryDy=14;entryPerimeter=0;" edge="1" parent="1" source="40" target="42">
                    <mxGeometry relative="1" as="geometry">
                        <mxPoint x="675" y="460" as="targetPoint"/>
                    </mxGeometry>
                </mxCell>
                <mxCell id="9" value="UseCase" style="rounded=0;whiteSpace=wrap;html=1;fillColor=none;fontSize=18;" parent="1" vertex="1">
                    <mxGeometry x="602.5" y="275" width="120" height="60" as="geometry"/>
                </mxCell>
                <mxCell id="10" value="Output" style="rounded=0;whiteSpace=wrap;html=1;fillColor=none;fontSize=18;" parent="1" vertex="1">
                    <mxGeometry x="602.5" y="375" width="120" height="60" as="geometry"/>
                </mxCell>
                <mxCell id="34" style="edgeStyle=none;html=1;exitX=0;exitY=0.5;exitDx=0;exitDy=0;dashed=1;" parent="1" source="13" target="30" edge="1">
                    <mxGeometry relative="1" as="geometry"/>
                </mxCell>
                <mxCell id="13" value="MySQL&lt;br&gt;Repository" style="rounded=0;whiteSpace=wrap;html=1;fillColor=none;fontSize=18;" parent="1" vertex="1">
                    <mxGeometry x="1320.5" y="363" width="120" height="60" as="geometry"/>
                </mxCell>
                <mxCell id="15" value="" style="endArrow=classic;html=1;entryX=0.75;entryY=1;entryDx=0;entryDy=0;exitX=0;exitY=0;exitDx=0;exitDy=0;fontSize=18;" parent="1" source="5" target="4" edge="1">
                    <mxGeometry width="50" height="50" relative="1" as="geometry">
                        <mxPoint x="380" y="390" as="sourcePoint"/>
                        <mxPoint x="430" y="340" as="targetPoint"/>
                    </mxGeometry>
                </mxCell>
                <mxCell id="16" value="" style="endArrow=classic;html=1;entryX=0.75;entryY=0;entryDx=0;entryDy=0;exitX=0;exitY=1;exitDx=0;exitDy=0;fontSize=18;" parent="1" source="5" target="6" edge="1">
                    <mxGeometry width="50" height="50" relative="1" as="geometry">
                        <mxPoint x="400" y="90" as="sourcePoint"/>
                        <mxPoint x="280" y="290" as="targetPoint"/>
                    </mxGeometry>
                </mxCell>
                <mxCell id="17" value="" style="endArrow=classic;html=1;entryX=0;entryY=0;entryDx=0;entryDy=121;exitX=1;exitY=0.5;exitDx=0;exitDy=0;fontSize=18;entryPerimeter=0;" parent="1" source="5" target="40" edge="1">
                    <mxGeometry width="50" height="50" relative="1" as="geometry">
                        <mxPoint x="310" y="370" as="sourcePoint"/>
                        <mxPoint x="290" y="410" as="targetPoint"/>
                    </mxGeometry>
                </mxCell>
                <mxCell id="18" value="" style="endArrow=classic;html=1;entryX=0.5;entryY=0;entryDx=0;entryDy=0;exitX=0.5;exitY=1;exitDx=0;exitDy=0;fontSize=18;" parent="1" source="9" target="10" edge="1">
                    <mxGeometry width="50" height="50" relative="1" as="geometry">
                        <mxPoint x="430" y="340" as="sourcePoint"/>
                        <mxPoint x="617" y="340" as="targetPoint"/>
                    </mxGeometry>
                </mxCell>
                <mxCell id="21" value="" style="rounded=0;whiteSpace=wrap;html=1;fontSize=18;fillColor=none;" parent="1" vertex="1">
                    <mxGeometry x="150" y="122" width="49" height="18" as="geometry"/>
                </mxCell>
                <mxCell id="22" value="" style="rounded=0;whiteSpace=wrap;html=1;fontSize=18;fillColor=none;" parent="1" vertex="1">
                    <mxGeometry x="507" y="122" width="49" height="18" as="geometry"/>
                </mxCell>
                <mxCell id="23" value="" style="rounded=0;whiteSpace=wrap;html=1;fontSize=18;fillColor=none;" parent="1" vertex="1">
                    <mxGeometry x="1214" y="125" width="49" height="18" as="geometry"/>
                </mxCell>
                <mxCell id="24" value="Model" style="rounded=0;whiteSpace=wrap;html=1;fillColor=none;fontSize=18;" parent="1" vertex="1">
                    <mxGeometry x="957.5" y="253" width="120" height="60" as="geometry"/>
                </mxCell>
                <mxCell id="25" value="" style="rounded=0;whiteSpace=wrap;html=1;fontSize=18;fillColor=none;" parent="1" vertex="1">
                    <mxGeometry x="861" y="122" width="49" height="18" as="geometry"/>
                </mxCell>
                <mxCell id="26" value="" style="endArrow=classic;html=1;exitX=0;exitY=0;exitDx=215;exitDy=121;fontSize=18;entryX=0;entryY=0;entryDx=0;entryDy=160.5;entryPerimeter=0;exitPerimeter=0;" parent="1" source="40" target="45" edge="1">
                    <mxGeometry width="50" height="50" relative="1" as="geometry">
                        <mxPoint x="760" y="340" as="sourcePoint"/>
                        <mxPoint x="1392" y="348.2196531791908" as="targetPoint"/>
                    </mxGeometry>
                </mxCell>
                <mxCell id="27" style="edgeStyle=none;html=1;exitX=0.5;exitY=0;exitDx=0;exitDy=0;entryX=0.5;entryY=1;entryDx=0;entryDy=0;" parent="1" target="24" edge="1">
                    <mxGeometry relative="1" as="geometry"/>
                </mxCell>
                <mxCell id="32" style="edgeStyle=none;html=1;exitX=0.5;exitY=0;exitDx=0;exitDy=0;entryX=0.5;entryY=1;entryDx=0;entryDy=0;" parent="1" source="30" target="24" edge="1">
                    <mxGeometry relative="1" as="geometry"/>
                </mxCell>
                <mxCell id="30" value="&amp;lt;&amp;lt;interface&amp;gt;&amp;gt;&lt;br&gt;Repository" style="rounded=0;whiteSpace=wrap;html=1;fillColor=none;fontSize=18;" parent="1" vertex="1">
                    <mxGeometry x="957.5" y="361" width="120" height="60" as="geometry"/>
                </mxCell>
                <mxCell id="44" style="edgeStyle=none;html=1;exitX=0.5;exitY=1;exitDx=0;exitDy=0;entryX=0.5;entryY=0;entryDx=0;entryDy=0;fontSize=18;endArrow=classic;endFill=1;" edge="1" parent="1" source="36" target="43">
                    <mxGeometry relative="1" as="geometry"/>
                </mxCell>
                <mxCell id="36" value="&amp;lt;&amp;lt;interface&amp;gt;&amp;gt;&lt;br&gt;QueryService" style="rounded=0;whiteSpace=wrap;html=1;fillColor=none;fontSize=18;" vertex="1" parent="1">
                    <mxGeometry x="607" y="569" width="120" height="60" as="geometry"/>
                </mxCell>
                <mxCell id="39" style="edgeStyle=none;html=1;dashed=1;endArrow=block;endFill=0;" edge="1" parent="1" source="38" target="36">
                    <mxGeometry relative="1" as="geometry"/>
                </mxCell>
                <mxCell id="38" value="MySQL&lt;br&gt;QueryService" style="rounded=0;whiteSpace=wrap;html=1;fillColor=none;fontSize=18;" vertex="1" parent="1">
                    <mxGeometry x="1320.5" y="570.5" width="120" height="60" as="geometry"/>
                </mxCell>
                <mxCell id="43" value="QueryModel" style="rounded=0;whiteSpace=wrap;html=1;fillColor=none;fontSize=18;" vertex="1" parent="1">
                    <mxGeometry x="607" y="655" width="120" height="60" as="geometry"/>
                </mxCell>
            </root>
        </mxGraphModel>
    </diagram>
</mxfile>